<svg id="svg" version="1.1" xmlns="http://www.w3.org/2000/svg" xmlns:xlink="http://www.w3.org/1999/xlink" width="400" height="400" viewBox="0, 0, 400,400"><g id="svgg"><path id="path0" d="M195.830 86.109 C 191.792 87.372,187.847 91.319,186.974 94.971 C 186.740 95.948,186.549 96.018,182.915 96.458 C 172.727 97.693,160.304 100.149,151.953 102.580 C 145.174 104.552,145.610 104.517,144.847 103.152 C 143.856 101.378,141.963 100.394,139.538 100.392 C 130.839 100.386,129.541 112.069,138.003 114.218 L 139.742 114.660 131.967 131.060 C 114.164 168.610,115.752 163.899,119.306 168.628 C 130.149 183.051,161.326 182.055,169.956 167.010 C 171.914 163.595,173.223 166.851,154.349 128.192 C 145.201 109.457,144.650 107.928,146.822 107.307 C 147.173 107.207,149.482 106.506,151.953 105.750 C 160.323 103.188,180.871 99.219,185.762 99.219 C 186.048 99.219,186.445 100.065,186.685 101.185 C 187.523 105.092,189.976 108.508,193.157 110.195 C 194.128 110.710,194.922 111.368,194.922 111.658 C 194.922 112.194,189.569 143.464,185.718 165.430 C 183.297 179.234,183.291 179.326,184.537 182.983 L 185.460 185.692 184.162 187.579 C 180.849 192.395,180.262 198.619,182.664 203.464 L 183.851 205.859 173.008 205.859 C 163.672 205.859,162.080 205.945,161.551 206.473 C 160.756 207.269,160.624 222.578,161.406 223.359 C 161.764 223.718,170.825 223.828,199.805 223.828 C 228.785 223.828,237.845 223.718,238.203 223.359 C 238.985 222.578,238.853 207.269,238.058 206.473 C 237.529 205.944,235.929 205.859,226.503 205.859 L 215.561 205.859 216.340 204.590 C 219.408 199.587,218.832 192.300,214.968 187.238 L 213.692 185.566 214.504 183.701 C 216.121 179.991,216.031 179.050,211.545 152.734 C 209.256 139.307,206.770 124.717,206.022 120.313 C 205.273 115.908,204.589 112.096,204.501 111.841 C 204.412 111.586,205.096 111.011,206.019 110.564 C 209.636 108.813,212.778 104.584,213.192 100.909 L 213.390 99.155 215.777 99.410 C 225.677 100.467,237.698 102.687,245.117 104.828 C 255.964 107.958,255.880 107.774,250.931 117.640 C 240.595 138.244,228.906 162.749,228.906 163.813 C 228.906 173.806,250.820 182.020,266.211 177.795 C 272.978 175.937,278.668 172.130,281.708 167.426 C 283.989 163.897,285.419 167.846,269.736 134.375 C 264.854 123.955,260.770 115.210,260.661 114.941 C 260.532 114.624,260.825 114.453,261.497 114.453 C 263.686 114.453,266.715 112.242,267.552 110.033 C 270.465 102.346,260.606 96.694,255.142 102.917 L 253.917 104.312 248.931 102.782 C 240.121 100.079,219.038 96.094,213.550 96.094 C 213.445 96.094,213.036 95.171,212.641 94.043 C 210.453 87.805,202.464 84.035,195.830 86.109 M204.265 89.299 C 212.214 92.610,212.411 103.891,204.588 107.801 C 194.071 113.056,184.251 99.661,192.615 91.470 C 195.716 88.433,200.186 87.600,204.265 89.299 M141.983 104.589 C 143.349 105.956,143.371 108.618,142.026 109.963 C 140.106 111.883,137.551 111.621,136.007 109.345 C 133.367 105.454,138.646 101.252,141.983 104.589 M262.722 103.697 C 266.492 105.272,265.269 111.328,261.181 111.328 C 257.642 111.328,255.694 108.433,257.231 105.459 C 258.315 103.364,260.357 102.709,262.722 103.697 M204.594 128.809 C 206.151 137.993,208.663 152.715,210.176 161.523 C 213.181 179.010,213.224 179.734,211.490 183.598 C 206.174 195.444,189.156 193.113,186.745 180.208 C 186.366 178.178,185.903 181.117,193.988 134.277 L 197.814 112.109 199.789 112.109 L 201.764 112.109 204.594 128.809 M162.592 151.688 C 165.375 157.451,167.576 162.242,167.482 162.336 C 167.388 162.429,156.751 162.461,143.844 162.405 L 120.376 162.305 131.966 137.810 L 143.555 113.315 150.543 127.263 C 154.386 134.934,159.808 145.926,162.592 151.688 M270.541 142.969 L 279.632 162.305 256.160 162.405 C 243.251 162.461,232.618 162.436,232.532 162.350 C 232.380 162.197,244.929 136.291,252.579 120.966 L 256.445 113.221 258.947 118.427 C 260.324 121.290,265.541 132.334,270.541 142.969 M166.917 166.449 C 161.509 175.753,141.851 179.011,128.954 172.740 C 126.070 171.337,120.703 166.736,120.703 165.665 C 120.703 165.356,127.317 165.234,144.163 165.234 L 167.622 165.234 166.917 166.449 M279.245 166.113 C 272.539 178.650,241.624 179.232,233.195 166.980 L 231.994 165.234 255.854 165.234 L 279.715 165.234 279.245 166.113 M192.642 192.726 C 198.721 195.700,206.781 194.288,211.001 189.509 C 212.107 188.257,212.184 188.231,212.743 188.924 C 215.539 192.389,216.246 198.063,214.366 201.953 C 212.323 206.183,213.542 205.859,199.663 205.859 L 187.538 205.859 186.294 204.051 C 183.327 199.739,183.243 194.140,186.082 189.850 L 187.062 188.370 188.796 190.031 C 189.750 190.945,191.481 192.158,192.642 192.726 M235.938 215.043 L 235.938 221.094 199.805 221.094 L 163.672 221.094 163.672 214.941 L 163.672 208.789 199.805 208.891 L 235.938 208.992 235.938 215.043 M108.760 215.407 C 108.305 217.219,107.899 217.188,131.817 217.188 C 156.512 217.188,155.530 217.273,154.865 215.179 C 154.644 214.482,153.715 214.453,131.817 214.453 L 108.999 214.453 108.760 215.407 M245.690 215.259 C 244.649 217.204,244.455 217.188,268.576 217.188 C 290.795 217.188,290.965 217.181,291.217 216.388 C 291.840 214.425,292.171 214.453,268.325 214.453 C 246.292 214.453,246.118 214.459,245.690 215.259 M157.813 243.127 C 140.313 247.068,144.210 271.827,162.136 270.599 C 165.749 270.351,168.994 269.031,171.150 266.933 L 172.573 265.548 171.150 264.307 C 168.409 261.916,168.657 261.962,166.451 263.447 C 159.713 267.981,151.654 262.835,153.149 254.952 C 154.334 248.701,160.964 246.142,166.434 249.824 L 168.425 251.163 170.345 249.544 C 172.635 247.613,172.627 247.664,170.893 246.142 C 167.531 243.190,162.591 242.051,157.813 243.127 M238.690 242.981 C 227.846 245.254,223.643 258.052,231.117 266.042 C 236.629 271.935,246.488 272.259,252.520 266.746 C 263.194 256.991,253.263 239.927,238.690 242.981 M75.781 256.836 L 75.781 270.313 78.711 270.313 L 81.641 270.313 81.643 262.012 L 81.645 253.711 85.451 260.834 L 89.258 267.958 91.029 267.963 L 92.801 267.969 94.045 265.527 C 94.729 264.185,96.436 260.918,97.839 258.269 L 100.391 253.451 100.391 261.882 L 100.391 270.313 103.320 270.313 L 106.250 270.313 106.250 256.820 L 106.250 243.328 103.096 243.441 L 99.942 243.555 95.653 251.172 C 93.294 255.361,91.239 258.915,91.087 259.068 C 90.934 259.221,88.790 255.757,86.323 251.370 L 81.836 243.394 78.809 243.377 L 75.781 243.359 75.781 256.836 M108.984 243.534 C 108.984 243.630,111.270 247.473,114.063 252.075 L 119.141 260.441 119.141 265.377 L 119.141 270.313 122.266 270.313 L 125.391 270.313 125.391 265.580 L 125.391 260.847 130.134 252.982 C 132.743 248.656,135.137 244.722,135.453 244.238 L 136.027 243.359 132.564 243.363 L 129.102 243.367 126.659 247.562 C 125.315 249.870,123.802 252.442,123.296 253.277 L 122.375 254.797 120.125 250.933 C 118.888 248.809,117.351 246.235,116.709 245.215 L 115.544 243.359 112.264 243.359 C 110.460 243.359,108.984 243.438,108.984 243.534 M183.820 245.216 C 183.408 246.236,180.903 252.236,178.254 258.549 C 175.605 264.862,173.438 270.092,173.438 270.170 C 173.438 270.248,174.888 270.312,176.660 270.311 L 179.883 270.309 181.036 267.186 L 182.189 264.063 188.067 264.064 L 193.945 264.065 195.131 267.091 L 196.318 270.117 199.576 270.231 C 202.551 270.336,202.817 270.285,202.633 269.646 C 202.523 269.260,200.153 263.583,197.367 257.028 C 194.580 250.474,192.175 244.717,192.022 244.235 C 191.761 243.411,191.531 243.359,188.157 243.361 L 184.570 243.362 183.820 245.216 M206.250 256.836 L 206.250 270.313 215.820 270.313 L 225.391 270.313 225.391 267.578 L 225.391 264.844 218.945 264.844 L 212.500 264.844 212.500 254.102 L 212.500 243.359 209.375 243.359 L 206.250 243.359 206.250 256.836 M262.109 256.808 L 262.109 270.313 265.039 270.313 L 267.969 270.313 267.969 266.211 L 267.969 262.109 270.801 262.122 L 273.633 262.134 276.355 266.223 L 279.077 270.313 282.702 270.313 L 286.327 270.313 283.360 266.145 C 280.222 261.737,279.764 260.938,280.372 260.938 C 282.859 260.938,285.849 255.210,285.368 251.366 C 284.601 245.227,281.503 243.604,270.215 243.429 L 262.109 243.303 262.109 256.808 M290.625 256.836 L 290.625 270.313 293.750 270.313 L 296.875 270.313 296.875 256.836 L 296.875 243.359 293.750 243.359 L 290.625 243.359 290.625 256.836 M303.516 256.836 L 303.516 270.313 313.867 270.313 L 324.219 270.313 324.219 267.773 L 324.219 265.234 316.992 265.234 L 309.766 265.234 309.766 262.109 L 309.766 258.984 316.016 258.984 L 322.266 258.984 322.266 256.445 L 322.266 253.906 316.016 253.906 L 309.766 253.906 309.766 250.977 L 309.766 248.047 316.992 248.047 L 324.219 248.047 324.219 245.703 L 324.219 243.359 313.867 243.359 L 303.516 243.359 303.516 256.836 M246.950 249.481 C 253.757 254.398,250.469 265.358,242.188 265.358 C 235.257 265.358,231.325 257.532,235.303 251.654 C 237.889 247.831,243.275 246.826,246.950 249.481 M275.172 248.410 C 279.104 249.055,280.642 253.128,277.965 255.808 C 276.994 256.780,276.692 256.843,272.453 256.967 L 267.969 257.098 267.969 252.573 L 267.969 248.047 270.605 248.070 C 272.056 248.083,274.110 248.236,275.172 248.410 M191.624 258.665 C 191.831 259.318,191.547 259.375,188.112 259.375 C 186.057 259.375,184.375 259.267,184.375 259.134 C 184.375 259.002,185.198 256.799,186.204 254.238 L 188.033 249.582 189.716 253.768 C 190.641 256.071,191.500 258.274,191.624 258.665 M245.310 278.099 C 234.718 281.321,236.557 296.851,247.533 296.871 C 250.288 296.876,254.286 295.144,254.294 293.942 C 254.302 292.844,252.712 292.541,251.495 293.407 C 246.456 296.995,239.599 292.117,240.786 285.788 C 241.679 281.025,247.618 278.559,251.346 281.403 L 252.810 282.520 253.651 281.664 L 254.492 280.809 253.320 279.851 C 251.283 278.186,247.642 277.390,245.310 278.099 M128.125 287.305 L 128.125 296.484 133.927 296.484 C 139.323 296.484,139.821 296.422,141.056 295.591 C 143.823 293.729,143.877 289.582,141.158 287.735 C 139.855 286.849,139.814 286.762,140.532 286.378 C 142.390 285.383,142.638 281.610,140.962 279.826 C 139.718 278.502,137.911 278.130,132.715 278.127 L 128.125 278.125 128.125 287.305 M152.803 287.012 C 148.330 297.001,148.451 296.603,149.861 296.665 C 150.768 296.705,151.045 296.399,152.049 294.254 L 153.199 291.797 157.854 291.797 L 162.508 291.797 163.573 294.043 C 164.159 295.278,164.660 296.338,164.687 296.399 C 164.798 296.643,167.188 296.799,167.188 296.563 C 167.188 296.422,165.386 292.221,163.184 287.227 C 157.738 274.877,158.233 274.887,152.803 287.012 M173.828 287.285 L 173.828 296.445 179.688 296.562 L 185.548 296.680 185.547 295.605 L 185.547 294.531 180.859 294.531 L 176.172 294.531 176.172 286.328 L 176.172 278.125 175.000 278.125 L 173.828 278.125 173.828 287.285 M198.323 278.396 C 198.094 278.780,190.234 296.455,190.234 296.587 C 190.234 296.638,190.787 296.663,191.462 296.643 C 192.577 296.610,192.791 296.385,193.782 294.202 L 194.874 291.797 199.607 291.797 L 204.340 291.797 205.393 294.101 C 206.332 296.156,208.984 297.909,208.984 296.475 C 208.984 294.526,200.750 278.305,199.708 278.201 C 199.049 278.135,198.426 278.223,198.323 278.396 M215.234 287.305 L 215.234 296.484 216.602 296.484 L 217.969 296.484 217.969 289.437 L 217.969 282.389 223.241 289.437 C 228.030 295.839,228.620 296.484,229.686 296.484 L 230.859 296.484 230.859 287.305 L 230.859 278.125 229.696 278.125 L 228.533 278.125 228.427 285.163 L 228.320 292.200 223.062 285.163 C 218.108 278.532,217.729 278.125,216.519 278.125 L 215.234 278.125 215.234 287.305 M261.328 287.305 L 261.328 296.484 267.383 296.484 C 270.713 296.484,273.569 296.484,273.730 296.484 C 273.892 296.484,274.023 296.025,274.023 295.465 L 274.023 294.445 268.848 294.507 L 263.672 294.570 263.672 291.405 L 263.672 288.240 268.262 288.308 L 272.852 288.376 272.852 287.254 L 272.852 286.133 268.262 286.023 L 263.672 285.913 263.672 283.191 L 263.672 280.469 268.750 280.469 L 273.828 280.469 273.828 279.297 L 273.828 278.125 267.578 278.125 L 261.328 278.125 261.328 287.305 M138.885 281.428 C 141.373 283.916,139.397 285.968,134.254 286.237 L 130.469 286.435 130.469 283.452 L 130.469 280.469 134.197 280.469 C 137.635 280.469,138.001 280.543,138.885 281.428 M159.750 285.156 C 160.657 287.197,161.474 289.043,161.565 289.258 C 161.670 289.507,160.387 289.603,158.013 289.524 C 155.969 289.456,154.297 289.346,154.297 289.280 C 154.297 289.214,154.757 288.127,155.320 286.865 C 155.883 285.603,156.679 283.798,157.088 282.855 C 157.497 281.911,157.892 281.208,157.966 281.292 C 158.039 281.376,158.842 283.115,159.750 285.156 M201.261 284.674 C 202.062 286.551,202.828 288.394,202.963 288.770 C 203.186 289.389,202.870 289.453,199.609 289.453 C 196.348 289.453,196.033 289.389,196.256 288.770 C 196.950 286.836,199.440 281.262,199.609 281.262 C 199.717 281.262,200.460 282.797,201.261 284.674 M113.121 285.186 C 111.961 286.564,111.865 287.457,112.700 289.072 C 113.760 291.122,117.199 291.271,118.561 289.326 C 121.033 285.797,115.896 281.888,113.121 285.186 M283.433 285.186 C 282.204 286.647,282.152 287.832,283.254 289.234 C 285.494 292.081,289.453 290.729,289.453 287.117 C 289.453 284.109,285.427 282.817,283.433 285.186 M138.374 288.691 C 140.006 289.144,140.625 289.993,140.625 291.777 C 140.625 293.785,138.912 294.528,134.277 294.530 L 130.469 294.531 130.469 291.406 L 130.469 288.281 133.691 288.283 C 135.464 288.285,137.571 288.468,138.374 288.691 " stroke="none" fill="#0464cc" fill-rule="evenodd"></path><path id="path1" d="" stroke="none" fill="#0864cc" fill-rule="evenodd"></path><path id="path2" d="" stroke="none" fill="#0864cc" fill-rule="evenodd"></path><path id="path3" d="" stroke="none" fill="#0864cc" fill-rule="evenodd"></path><path id="path4" d="" stroke="none" fill="#0864cc" fill-rule="evenodd"></path></g></svg>